<svg version="1.1" width="300px" height="89px" xmlns="http://www.w3.org/2000/svg" xmlns:xlink="http://www.w3.org/1999/xlink" x="0px" y="0px"
	 viewBox="0 0 300 89" style="enable-background:new 0 0 300 89;" xml:space="preserve">
<style type="text/css">
	.st0{fill:#FFFFFF;}
	.st1{fill:#A6A6A6;}
	.st2{fill:url(#SVGID_1_);}
	.st3{fill:#FFFFFF;stroke:#000000;stroke-miterlimit:10;}
</style>
<path class="st0" d="M298,78.5c0,4.7-3.8,8.5-8.5,8.5h-279C5.8,87,2,83.2,2,78.5V10.5C2,5.8,5.8,2,10.5,2h279c4.7,0,8.5,3.8,8.5,8.5
	L298,78.5z"/>
<path class="st1" d="M289.5,89h-279C4.7,89,0,84.2,0,78.5V10.6C0,4.8,4.7,0,10.5,0h279c5.8,0,10.5,4.7,10.5,10.5v67.9
	C300,84.2,295.3,89,289.5,89L289.5,89z"/>
<path d="M298,78.5c0,4.7-3.8,8.5-8.5,8.5h-279C5.8,87,2,83.2,2,78.5V10.5C2,5.8,5.8,2,10.5,2h279c4.7,0,8.5,3.8,8.5,8.5L298,78.5z"
	/>
<linearGradient id="SVGID_1_" gradientUnits="userSpaceOnUse" x1="-675.2803" y1="-1378.2397" x2="-675.2803" y2="-1342.1937" gradientTransform="matrix(2.2234 0 0 -2.2234 1721.464 -2975.2122)">
	<stop  offset="0" style="stop-color:#1A1A1A;stop-opacity:0.1"/>
	<stop  offset="0.123" style="stop-color:#212121;stop-opacity:0.151"/>
	<stop  offset="0.308" style="stop-color:#353535;stop-opacity:0.227"/>
	<stop  offset="0.532" style="stop-color:#575757;stop-opacity:0.318"/>
	<stop  offset="0.783" style="stop-color:#858585;stop-opacity:0.421"/>
	<stop  offset="1" style="stop-color:#B3B3B3;stop-opacity:0.51"/>
</linearGradient>
<path class="st2" d="M289.5,0H140.1L198.6,89h90.9c5.8,0,10.5-4.7,10.5-10.5V10.6C300,4.8,295.3,0,289.5,0z"/>
<g>
	<path class="st0" d="M119.3,70.1h-5l-2.8-8.7h-9.6l-2.6,8.7h-4.9l9.5-29.6h5.9L119.3,70.1L119.3,70.1z M110.7,57.8l-2.5-7.7
		c-0.3-0.8-0.8-2.6-1.5-5.6h-0.1c-0.3,1.3-0.8,3.1-1.4,5.6l-2.5,7.7H110.7L110.7,57.8z M143.8,59.2c0,3.6-1,6.5-3,8.6
		c-1.8,1.9-4,2.8-6.6,2.8c-2.8,0-4.9-1-6.1-3v11.2h-4.7v-23c0-2.3-0.1-4.6-0.2-7h4.2l0.3,3.4h0.1c1.6-2.5,4-3.8,7.2-3.8
		c2.5,0,4.6,1,6.3,3C142.9,53.3,143.8,55.9,143.8,59.2z M138.9,59.3c0-2.1-0.5-3.8-1.4-5.1c-1-1.4-2.4-2.1-4.1-2.1
		c-1.2,0-2.2,0.4-3.2,1.2c-1,0.8-1.6,1.8-1.9,3.1c-0.1,0.6-0.2,1.1-0.2,1.4v3.6c0,1.5,0.5,2.9,1.4,3.9c1,1.1,2.2,1.6,3.7,1.6
		c1.8,0,3.2-0.7,4.2-2.1C138.4,63.4,138.9,61.6,138.9,59.3z M168.3,59.2c0,3.6-1,6.5-3,8.6c-1.8,1.9-4,2.8-6.6,2.8
		c-2.8,0-4.9-1-6.1-3v11.2h-4.7v-23c0-2.3-0.1-4.6-0.2-7h4.2l0.3,3.4h0.1c1.6-2.5,4-3.8,7.2-3.8c2.5,0,4.6,1,6.3,3
		C167.5,53.3,168.3,55.9,168.3,59.2L168.3,59.2z M163.5,59.3c0-2.1-0.5-3.8-1.4-5.1c-1-1.4-2.4-2.1-4.1-2.1c-1.2,0-2.2,0.4-3.2,1.2
		c-1,0.8-1.6,1.8-1.9,3.1c-0.1,0.6-0.2,1.1-0.2,1.4v3.6c0,1.5,0.5,2.9,1.4,3.9c1,1.1,2.2,1.6,3.7,1.6c1.8,0,3.2-0.7,4.2-2.1
		C163,63.4,163.5,61.6,163.5,59.3z M195.8,61.8c0,2.5-0.9,4.6-2.6,6.1c-1.9,1.7-4.6,2.6-8.1,2.6c-3.2,0-5.7-0.6-7.7-1.8l1.1-4
		c2.1,1.2,4.4,1.8,6.8,1.8c1.8,0,3.2-0.4,4.2-1.2c1-0.8,1.5-1.9,1.5-3.2c0-1.2-0.4-2.2-1.2-3c-0.8-0.8-2.2-1.6-4.1-2.3
		c-5.2-1.9-7.8-4.8-7.8-8.5c0-2.4,0.9-4.4,2.7-6c1.8-1.6,4.3-2.3,7.3-2.3c2.7,0,4.9,0.5,6.7,1.4l-1.2,3.9c-1.7-0.9-3.6-1.4-5.7-1.4
		c-1.7,0-3,0.4-3.9,1.2c-0.8,0.7-1.2,1.6-1.2,2.7c0,1.2,0.5,2.1,1.4,2.9c0.8,0.7,2.2,1.5,4.3,2.3c2.5,1,4.4,2.2,5.6,3.6
		C195.1,58,195.8,59.7,195.8,61.8L195.8,61.8z M211.5,52.3h-5.2v10.4c0,2.6,0.9,3.9,2.8,3.9c0.8,0,1.5-0.1,2.1-0.2l0.1,3.6
		c-0.9,0.3-2.2,0.5-3.7,0.5c-1.9,0-3.3-0.6-4.4-1.7c-1.1-1.1-1.6-3.1-1.6-5.8V52.3h-3.1v-3.6h3.1v-3.9l4.7-1.4v5.3h5.2
		C211.5,48.7,211.5,52.3,211.5,52.3z M235,59.2c0,3.3-0.9,6-2.8,8.1c-2,2.2-4.6,3.2-7.8,3.2c-3.1,0-5.6-1-7.5-3.1
		c-1.9-2.1-2.8-4.7-2.8-7.9c0-3.3,1-6,2.9-8.1c1.9-2.1,4.5-3.2,7.8-3.2c3.1,0,5.6,1,7.5,3.1C234.1,53.5,235,56.1,235,59.2L235,59.2z
		 M230.1,59.4c0-2-0.4-3.6-1.3-5c-1-1.7-2.4-2.5-4.3-2.5c-1.9,0-3.4,0.8-4.3,2.5c-0.8,1.4-1.3,3.1-1.3,5.1c0,2,0.4,3.6,1.3,5
		c1,1.7,2.5,2.5,4.3,2.5c1.8,0,3.2-0.9,4.3-2.6C229.6,63,230.1,61.3,230.1,59.4z M250.4,52.9c-0.5-0.1-1-0.1-1.5-0.1
		c-1.7,0-3,0.6-3.9,1.9c-0.8,1.1-1.2,2.5-1.2,4.2v11.2h-4.7V55.5c0-2.5,0-4.7-0.1-6.7h4.1l0.2,4.1h0.1c0.5-1.4,1.3-2.5,2.4-3.4
		c1.1-0.8,2.2-1.1,3.4-1.1c0.4,0,0.8,0,1.2,0.1L250.4,52.9z M271.6,58.4c0,0.8-0.1,1.6-0.2,2.2h-14.2c0.1,2.1,0.7,3.7,2.1,4.8
		c1.2,1,2.7,1.5,4.7,1.5c2.1,0,4-0.3,5.8-1l0.7,3.3c-2,0.9-4.4,1.3-7.2,1.3c-3.3,0-5.9-1-7.8-2.9c-1.9-1.9-2.8-4.6-2.8-7.8
		c0-3.2,0.9-5.9,2.6-8c1.8-2.3,4.3-3.4,7.5-3.4c3.1,0,5.4,1.1,7,3.4C271,53.5,271.6,55.8,271.6,58.4z M267.1,57.2
		c0-1.4-0.3-2.6-0.9-3.6c-0.8-1.3-2.1-2-3.8-2c-1.5,0-2.8,0.6-3.8,1.9c-0.8,1-1.3,2.3-1.4,3.7L267.1,57.2z"/>
</g>
<g>
	<path class="st0" d="M108.4,29.9h-2.5l-1.4-4.3h-4.7l-1.3,4.3h-2.4l4.7-14.5h2.9L108.4,29.9z M104.1,23.8l-1.2-3.8
		c-0.1-0.4-0.4-1.3-0.7-2.7h0c-0.2,0.6-0.4,1.5-0.7,2.7l-1.2,3.8H104.1z M120.1,19.4l-4,10.5h-2.3L110,19.4h2.5l1.8,5.5
		c0.3,0.9,0.6,1.8,0.8,2.7h0.1c0.2-0.8,0.4-1.6,0.8-2.7l1.8-5.5H120.1L120.1,19.4z M128.5,29.9l-0.2-1.2h-0.1
		c-0.7,1-1.7,1.4-3.1,1.4c-1.9,0-3.2-1.3-3.2-3.1c0-2.6,2.2-3.9,6.1-3.9v-0.2c0-1.4-0.7-2.1-2.2-2.1c-1,0-1.9,0.3-2.7,0.8l-0.5-1.5
		c1-0.6,2.2-0.9,3.6-0.9c2.7,0,4.1,1.4,4.1,4.3v3.9c0,1.1,0,1.9,0.2,2.5C130.6,29.9,128.5,29.9,128.5,29.9z M128.2,24.7
		c-2.6,0-3.9,0.6-3.9,2.1c0,1.1,0.7,1.6,1.6,1.6c1.2,0,2.3-0.9,2.3-2.1L128.2,24.7L128.2,24.7z M135.7,17.7c-0.8,0-1.4-0.6-1.4-1.4
		c0-0.8,0.6-1.4,1.4-1.4c0.8,0,1.4,0.6,1.4,1.4C137.1,17.1,136.5,17.7,135.7,17.7z M136.9,29.9h-2.3V19.4h2.3L136.9,29.9L136.9,29.9
		z M143.4,29.9H141V14.6h2.3L143.4,29.9L143.4,29.9z M153.3,29.9l-0.2-1.2H153c-0.7,1-1.7,1.4-3.1,1.4c-1.9,0-3.2-1.3-3.2-3.1
		c0-2.6,2.2-3.9,6.1-3.9v-0.2c0-1.4-0.7-2.1-2.2-2.1c-1,0-1.9,0.3-2.7,0.8l-0.5-1.5c1-0.6,2.2-0.9,3.6-0.9c2.7,0,4.1,1.4,4.1,4.3
		v3.9c0,1.1,0,1.9,0.1,2.5L153.3,29.9L153.3,29.9z M152.9,24.7c-2.6,0-3.9,0.6-3.9,2.1c0,1.1,0.7,1.6,1.6,1.6c1.2,0,2.3-0.9,2.3-2.1
		V24.7z M164.6,30.1c-1.5,0-2.6-0.6-3.3-1.9h0l-0.1,1.6h-2c0.1-0.8,0.1-1.8,0.1-2.8V14.6h2.3V21h0c0.7-1.2,1.8-1.7,3.3-1.7
		c2.5,0,4.3,2.2,4.3,5.3C169.3,27.8,167.3,30.1,164.6,30.1z M164.2,21c-1.3,0-2.6,1.2-2.6,2.8v1.8c0,1.4,1.1,2.6,2.5,2.6
		c1.7,0,2.8-1.4,2.8-3.7C166.9,22.5,165.8,21,164.2,21L164.2,21z M175.1,29.9h-2.3V14.6h2.3V29.9z M187.7,25.2h-7
		c0,2,1.4,3.1,3.3,3.1c1,0,2-0.2,2.8-0.5l0.4,1.6c-1,0.4-2.2,0.6-3.5,0.6c-3.3,0-5.2-2.1-5.2-5.3c0-3.2,2-5.6,5-5.6
		c2.7,0,4.4,2,4.4,5C187.8,24.6,187.8,24.9,187.7,25.2L187.7,25.2z M185.6,23.6c0-1.6-0.8-2.8-2.3-2.8c-1.3,0-2.4,1.2-2.5,2.8H185.6
		L185.6,23.6z M201.9,30.1c-3.1,0-5-2.3-5-5.4c0-3.2,2-5.5,5.2-5.5c3,0,5,2.2,5,5.4C207.1,27.9,205,30.1,201.9,30.1z M202,20.9
		c-1.7,0-2.8,1.6-2.8,3.8c0,2.2,1.1,3.7,2.7,3.7s2.7-1.7,2.7-3.8C204.7,22.5,203.6,20.9,202,20.9L202,20.9z M219.6,29.9h-2.3v-6
		c0-1.9-0.7-2.8-2.1-2.8c-1.4,0-2.3,1.2-2.3,2.6v6.2h-2.3v-7.5c0-0.9,0-1.9-0.1-3h2l0.1,1.6h0.1c0.6-1.1,1.9-1.8,3.3-1.8
		c2.2,0,3.6,1.7,3.6,4.4L219.6,29.9C219.6,29.9,219.6,29.9,219.6,29.9z M234.9,21.2h-2.6v5.1c0,1.3,0.5,1.9,1.4,1.9
		c0.4,0,0.8,0,1-0.1l0.1,1.8c-0.5,0.2-1.1,0.3-1.8,0.3c-1.8,0-2.9-1-2.9-3.7v-5.3h-1.5v-1.7h1.5v-1.9l2.3-0.7v2.6h2.6
		C234.9,19.4,234.9,21.2,234.9,21.2z M247.2,29.9h-2.3v-6c0-1.9-0.7-2.8-2.1-2.8c-1.2,0-2.3,0.8-2.3,2.5v6.3h-2.3V14.6h2.3v6.3h0
		c0.7-1.1,1.8-1.7,3.2-1.7c2.2,0,3.6,1.7,3.6,4.5V29.9z M259.1,25.2h-7c0,2,1.4,3.1,3.3,3.1c1,0,2-0.2,2.8-0.5l0.4,1.6
		c-1,0.4-2.2,0.6-3.5,0.6c-3.3,0-5.2-2.1-5.2-5.3c0-3.2,2-5.6,5-5.6c2.7,0,4.4,2,4.4,5C259.2,24.6,259.2,24.9,259.1,25.2L259.1,25.2
		z M257,23.6c0-1.6-0.8-2.8-2.3-2.8c-1.3,0-2.4,1.2-2.5,2.8H257z"/>
</g>
<circle class="st3" cx="47.5" cy="43.4" r="30.5"/>
</svg>
