<svg width="215" height="225" fill="none" xmlns="http://www.w3.org/2000/svg"><path opacity=".051" fill-rule="evenodd" clip-rule="evenodd" d="M6.118 212.837c-3.379 0-6.118 2.723-6.118 6.082 0 3.358 2.739 6.08 6.118 6.08 3.378 0 6.118-2.722 6.118-6.08 0-3.359-2.74-6.082-6.118-6.082zm40.203 0c-3.379 0-6.118 2.723-6.118 6.082 0 3.358 2.739 6.08 6.118 6.08 3.379 0 6.118-2.722 6.118-6.08 0-3.359-2.739-6.082-6.118-6.082zm40.203 0c-3.378 0-6.118 2.723-6.118 6.082 0 3.358 2.74 6.08 6.118 6.08 3.379 0 6.118-2.722 6.118-6.08 0-3.359-2.739-6.082-6.118-6.082zm41.951 0c-3.379 0-6.118 2.723-6.118 6.082 0 3.358 2.739 6.08 6.118 6.08 3.379 0 6.118-2.722 6.118-6.08 0-3.359-2.739-6.082-6.118-6.082zm40.204 0c-3.379 0-6.119 2.723-6.119 6.082 0 3.358 2.74 6.08 6.119 6.08 3.378 0 6.117-2.722 6.117-6.08 0-3.359-2.739-6.082-6.117-6.082zm40.203 0c-3.379 0-6.118 2.723-6.118 6.082 0 3.358 2.739 6.08 6.118 6.08 3.378 0 6.118-2.722 6.118-6.08 0-3.359-2.74-6.082-6.118-6.082zM6.118 170.269c-3.379 0-6.118 2.724-6.118 6.082 0 3.358 2.739 6.081 6.118 6.081 3.378 0 6.118-2.723 6.118-6.081 0-3.358-2.74-6.082-6.118-6.082zm40.203 0c-3.379 0-6.118 2.724-6.118 6.082 0 3.358 2.739 6.081 6.118 6.081 3.379 0 6.118-2.723 6.118-6.081 0-3.358-2.739-6.082-6.118-6.082zm40.203 0c-3.378 0-6.118 2.724-6.118 6.082 0 3.358 2.74 6.081 6.118 6.081 3.379 0 6.118-2.723 6.118-6.081 0-3.358-2.739-6.082-6.118-6.082zm41.951 0c-3.379 0-6.118 2.724-6.118 6.082 0 3.358 2.739 6.081 6.118 6.081 3.379 0 6.118-2.723 6.118-6.081 0-3.358-2.739-6.082-6.118-6.082zm40.204 0c-3.379 0-6.119 2.724-6.119 6.082 0 3.358 2.74 6.081 6.119 6.081 3.378 0 6.117-2.723 6.117-6.081 0-3.358-2.739-6.082-6.117-6.082zm40.203 0c-3.379 0-6.118 2.724-6.118 6.082 0 3.358 2.739 6.081 6.118 6.081 3.378 0 6.118-2.723 6.118-6.081 0-3.358-2.74-6.082-6.118-6.082zM6.118 127.702c-3.379 0-6.118 2.723-6.118 6.082 0 3.358 2.739 6.08 6.118 6.08 3.378 0 6.118-2.722 6.118-6.08 0-3.359-2.74-6.082-6.118-6.082zm40.203 0c-3.379 0-6.118 2.723-6.118 6.082 0 3.358 2.739 6.08 6.118 6.08 3.379 0 6.118-2.722 6.118-6.08 0-3.359-2.739-6.082-6.118-6.082zm40.203 0c-3.378 0-6.118 2.723-6.118 6.082 0 3.358 2.74 6.08 6.118 6.08 3.379 0 6.118-2.722 6.118-6.08 0-3.359-2.739-6.082-6.118-6.082zm41.951 0c-3.379 0-6.118 2.723-6.118 6.082 0 3.358 2.739 6.08 6.118 6.08 3.379 0 6.118-2.722 6.118-6.08 0-3.359-2.739-6.082-6.118-6.082zm40.204 0c-3.379 0-6.119 2.723-6.119 6.082 0 3.358 2.74 6.08 6.119 6.08 3.378 0 6.117-2.722 6.117-6.08 0-3.359-2.739-6.082-6.117-6.082zm40.203 0c-3.379 0-6.118 2.723-6.118 6.082 0 3.358 2.739 6.08 6.118 6.08 3.378 0 6.118-2.722 6.118-6.08 0-3.359-2.74-6.082-6.118-6.082zM6.118 85.134C2.739 85.134 0 87.857 0 91.216s2.739 6.081 6.118 6.081c3.378 0 6.118-2.722 6.118-6.081 0-3.359-2.74-6.082-6.118-6.082zm40.203 0c-3.379 0-6.118 2.723-6.118 6.082s2.739 6.081 6.118 6.081c3.379 0 6.118-2.722 6.118-6.081 0-3.359-2.739-6.082-6.118-6.082zm40.203 0c-3.378 0-6.118 2.723-6.118 6.082s2.74 6.081 6.118 6.081c3.379 0 6.118-2.722 6.118-6.081 0-3.359-2.739-6.082-6.118-6.082zm41.951 0c-3.379 0-6.118 2.723-6.118 6.082s2.739 6.081 6.118 6.081c3.379 0 6.118-2.722 6.118-6.081 0-3.359-2.739-6.082-6.118-6.082zm40.204 0c-3.379 0-6.119 2.723-6.119 6.082s2.74 6.081 6.119 6.081c3.378 0 6.117-2.722 6.117-6.081 0-3.359-2.739-6.082-6.117-6.082zm40.203 0c-3.379 0-6.118 2.723-6.118 6.082s2.739 6.081 6.118 6.081c3.378 0 6.118-2.722 6.118-6.081 0-3.359-2.74-6.082-6.118-6.082zM6.118 42.568C2.739 42.568 0 45.29 0 48.648c0 3.359 2.739 6.081 6.118 6.081 3.378 0 6.118-2.722 6.118-6.081 0-3.358-2.74-6.08-6.118-6.08zm40.203 0c-3.379 0-6.118 2.722-6.118 6.08 0 3.359 2.739 6.081 6.118 6.081 3.379 0 6.118-2.722 6.118-6.081 0-3.358-2.739-6.08-6.118-6.08zm40.203 0c-3.378 0-6.118 2.722-6.118 6.08 0 3.359 2.74 6.081 6.118 6.081 3.379 0 6.118-2.722 6.118-6.081 0-3.358-2.739-6.08-6.118-6.08zm41.951 0c-3.379 0-6.118 2.722-6.118 6.08 0 3.359 2.739 6.081 6.118 6.081 3.379 0 6.118-2.722 6.118-6.081 0-3.358-2.739-6.08-6.118-6.08zm40.204 0c-3.379 0-6.119 2.722-6.119 6.08 0 3.359 2.74 6.081 6.119 6.081 3.378 0 6.117-2.722 6.117-6.081 0-3.358-2.739-6.08-6.117-6.08zm40.203 0c-3.379 0-6.118 2.722-6.118 6.08 0 3.359 2.739 6.081 6.118 6.081 3.378 0 6.118-2.722 6.118-6.081 0-3.358-2.74-6.08-6.118-6.08zM6.118-.001C2.739-.001 0 2.722 0 6.081c0 3.358 2.739 6.081 6.118 6.081 3.378 0 6.118-2.723 6.118-6.081 0-3.359-2.74-6.082-6.118-6.082zm40.203 0c-3.379 0-6.118 2.723-6.118 6.082 0 3.358 2.739 6.081 6.118 6.081 3.379 0 6.118-2.723 6.118-6.081 0-3.359-2.739-6.082-6.118-6.082zm40.203 0c-3.378 0-6.118 2.723-6.118 6.082 0 3.358 2.74 6.081 6.118 6.081 3.379 0 6.118-2.723 6.118-6.081 0-3.359-2.739-6.082-6.118-6.082zm41.951 0c-3.379 0-6.118 2.723-6.118 6.082 0 3.358 2.739 6.081 6.118 6.081 3.379 0 6.118-2.723 6.118-6.081 0-3.359-2.739-6.082-6.118-6.082zm40.204 0c-3.379 0-6.119 2.723-6.119 6.082 0 3.358 2.74 6.081 6.119 6.081 3.378 0 6.117-2.723 6.117-6.081 0-3.359-2.739-6.082-6.117-6.082zm40.203 0c-3.379 0-6.118 2.723-6.118 6.082 0 3.358 2.739 6.081 6.118 6.081 3.378 0 6.118-2.723 6.118-6.081 0-3.359-2.74-6.082-6.118-6.082z" fill="#7E713C"/></svg>