<svg width="126" height="26" fill="none" xmlns="http://www.w3.org/2000/svg"><path fill-rule="evenodd" clip-rule="evenodd" d="M121.773 12.797c-2.169 2.886-3.823 6.139-6.118 8.913-.277.024-.839.064-1.116.079-1.725-2.741 1.219-5.483 2.343-7.881-6.055 2.19-11.659 5.699-18.03 6.923-.285-1.311-.617-3.038.705-3.909 2.073-1.016 4.479-1.239 6.434-2.527 2.517-1.742 5.509-2.541 8.073-4.196-2.074-.048-4.147.112-6.213-.056-1.733-.655-1.322-3.317.04-4.157 2.635-.343 5.31-.088 7.954-.263 3.332 0 6.743-1.631 9.901.119-.412 2.766-2.525 4.717-3.973 6.955zm-47.56 12.086c-1.1-1.367.215-3.669 1.932-3.517 2.944-.247 5.928-.272 8.817-.967 1.702-.224 4.21-1.495 5.002.847-.593 1.998-2.968 2.007-4.598 2.558-3.65.696-7.464 1.655-11.152 1.079zm-15.306-.551c-3.561-.008-7.226-.128-10.55-1.535.41-1.063.649-2.358 1.773-2.917 3.189.191 6.316 1.014 9.52.983 2.13.151 5.058-.712 5.945 1.982-1.86 1.607-4.401 1.407-6.688 1.487zm-27.701-4.924c-2.897-1.023-6-1.727-8.413-3.742.514-.975 1.116-2.877 2.61-2.214 3.959 1.671 8.043 2.982 12.158 4.189 1.472.248 1.472 2.67-.031 3.014-2.177.144-4.274-.632-6.324-1.247zm-20.444-8.793C6.932 8.616 2.484 6.418.86 2.094.157.375 2.887-.72 3.734.814c2.572 3.518 6.593 5.292 9.98 7.81 1.67 1.927-1.56 3.238-2.952 1.991z" fill="#7828E6"/></svg>