<svg width="89" height="89" fill="none" xmlns="http://www.w3.org/2000/svg"><rect width="89" height="89" rx="22" fill="#F7F3E6"/><path d="M70.329 22.654a3.337 3.337 0 00-.934-2.016 3.21 3.21 0 00-1.974-.952 143.802 143.802 0 00-28.053 0 3.21 3.21 0 00-1.98.953 3.336 3.336 0 00-.933 2.02c-.7 7.456-.853 14.954-.457 22.432-2.737.08-5.486.221-8.261.428a9.295 9.295 0 00-6.1 2.938 9.679 9.679 0 00-2.59 6.36c-.06 2.266-.062 4.565-.008 6.828a9.658 9.658 0 002.052 5.759.75.75 0 001.058.11.79.79 0 00.133-1.077 8.089 8.089 0 01-1.72-4.827c-.053-2.238-.05-4.51.008-6.747a8.078 8.078 0 012.16-5.334 7.757 7.757 0 015.114-2.457c8.84-.667 17.716-.67 26.556-.01a7.744 7.744 0 015.103 2.442 8.064 8.064 0 012.165 5.313c.06 2.242.06 4.525.008 6.778a8.112 8.112 0 01-2.342 5.531 7.78 7.78 0 01-5.45 2.31h-.743a7.626 7.626 0 01-4.588-1.553 7.896 7.896 0 01-2.789-4.031 4.012 4.012 0 00-1.415-2.072 3.874 3.874 0 00-2.347-.797h-1.76c-.85 0-1.675.28-2.355.798a4.013 4.013 0 00-1.416 2.08 7.896 7.896 0 01-2.788 4.03 7.626 7.626 0 01-4.587 1.553h-.742a7.694 7.694 0 01-3.995-1.148.748.748 0 00-.576-.09.763.763 0 00-.47.353.792.792 0 00-.087.588c.048.2.172.373.345.48A9.18 9.18 0 0028.345 71h.758a9.168 9.168 0 005.482-1.868 9.492 9.492 0 003.342-4.814c.146-.509.45-.956.864-1.274a2.382 2.382 0 011.438-.496h1.76a2.385 2.385 0 011.438.496c.415.318.718.765.865 1.273a9.491 9.491 0 003.347 4.82A9.167 9.167 0 0053.129 71h.757a9.286 9.286 0 006.51-2.754 9.682 9.682 0 002.798-6.604c.056-2.284.053-4.592 0-6.86 0-.052 0-.102-.008-.151 1.411-.097 2.833-.213 4.239-.352a3.215 3.215 0 001.973-.957 3.34 3.34 0 00.93-2.018c.896-9.528.896-19.122 0-28.65zm-1.517 28.502a1.768 1.768 0 01-.494 1.07 1.7 1.7 0 01-1.047.504c-1.42.139-2.854.257-4.279.353a9.58 9.58 0 00-2.293-4.55 13.614 13.614 0 003.881-3.9 13.926 13.926 0 002.052-5.15 14.045 14.045 0 00-.11-5.559 13.9 13.9 0 00-2.257-5.06.767.767 0 00-.498-.31.746.746 0 00-.566.141.772.772 0 00-.303.51.792.792 0 00.138.578 12.33 12.33 0 012.022 4.588 12.46 12.46 0 01.037 5.032 12.34 12.34 0 01-1.953 4.62 12.054 12.054 0 01-3.613 3.422 9.244 9.244 0 00-5.023-1.936c-3.386-.25-6.733-.407-10.083-.468a12.352 12.352 0 01-3.014-8.401 12.328 12.328 0 013.41-8.242 11.832 11.832 0 018.002-3.648 11.789 11.789 0 018.285 2.91.75.75 0 001.066-.096.788.788 0 00-.083-1.09 13.296 13.296 0 00-8.99-3.237 13.321 13.321 0 00-8.838 3.652 13.863 13.863 0 00-4.256 8.712 13.973 13.973 0 002.457 9.407c-1.645-.01-3.292 0-4.94.033-.395-7.415-.245-14.85.448-22.243.039-.405.214-.783.495-1.07a1.705 1.705 0 011.047-.506c9.234-.903 18.53-.903 27.764 0a1.7 1.7 0 011.047.506c.282.287.456.665.494 1.07a151.38 151.38 0 010 28.354l-.005.004z" fill="#000"/><path d="M53.4 33.826a3.05 3.05 0 00-1.716.531 3.14 3.14 0 00-1.137 1.415 3.216 3.216 0 00-.176 1.822c.12.612.414 1.174.845 1.615.432.441.983.741 1.581.863.6.122 1.22.06 1.785-.18a3.103 3.103 0 001.385-1.16 3.201 3.201 0 00-.385-3.981 3.06 3.06 0 00-2.182-.925zm0 4.75a1.54 1.54 0 01-.87-.267 1.59 1.59 0 01-.579-.715 1.63 1.63 0 01.334-1.743 1.534 1.534 0 011.704-.35c.287.12.532.324.704.587a1.622 1.622 0 01-.19 2.016c-.292.3-.689.47-1.103.471zM29.369 50.127h-1.22a2.135 2.135 0 00-1.52.647 2.22 2.22 0 00-.63 1.553v1.475h-1.446c-.572 0-1.12.233-1.524.646a2.229 2.229 0 00-.633 1.556v1.245a2.23 2.23 0 00.634 1.553c.404.411.952.643 1.523.643h1.443v1.475c.002.583.23 1.141.635 1.553.404.412.952.643 1.523.643h1.219a2.13 2.13 0 001.523-.646 2.23 2.23 0 00.633-1.556v-1.469h1.443c.572 0 1.12-.233 1.523-.645a2.23 2.23 0 00.632-1.555V56c0-.584-.227-1.144-.631-1.556a2.135 2.135 0 00-1.524-.646h-1.447v-1.47a2.23 2.23 0 00-.633-1.556 2.134 2.134 0 00-1.523-.645zm3.6 5.231c.167 0 .327.069.446.19a.653.653 0 01.184.456v1.245a.651.651 0 01-.184.456.625.625 0 01-.447.188h-2.206a.754.754 0 00-.538.229.787.787 0 00-.223.55v2.252a.654.654 0 01-.186.456.627.627 0 01-.447.19H28.15a.626.626 0 01-.447-.19.653.653 0 01-.184-.456v-2.256a.787.787 0 00-.224-.55.754.754 0 00-.539-.229h-2.203a.626.626 0 01-.447-.189.652.652 0 01-.186-.455V56c0-.172.067-.336.186-.457a.628.628 0 01.447-.19h2.207a.747.747 0 00.54-.226.778.778 0 00.223-.55v-2.25c0-.17.066-.334.184-.455a.625.625 0 01.447-.189h1.219c.167 0 .328.068.446.189.119.12.186.284.186.456v2.253c0 .206.08.403.223.55a.753.753 0 00.538.227h2.202zM58.7 53.296c0-.626-.183-1.239-.524-1.76a3.114 3.114 0 00-1.39-1.165 3.04 3.04 0 00-1.792-.18 3.081 3.081 0 00-1.587.867 3.187 3.187 0 00-.849 1.621 3.244 3.244 0 00.177 1.83 3.152 3.152 0 001.143 1.42c.51.348 1.11.533 1.722.533a3.07 3.07 0 002.191-.928 3.202 3.202 0 00.908-2.238zm-4.676 0c0-.319.093-.63.266-.895a1.556 1.556 0 012.426-.243 1.64 1.64 0 01.34 1.755c-.12.294-.321.546-.58.722a1.554 1.554 0 01-1.99-.202 1.629 1.629 0 01-.462-1.137zm-5.52 6.085c0 .627.181 1.239.522 1.76.34.52.824.927 1.39 1.166a3.04 3.04 0 001.792.181 3.08 3.08 0 001.587-.866 3.19 3.19 0 00.85-1.621 3.23 3.23 0 00-.177-1.83 3.152 3.152 0 00-1.142-1.42 3.054 3.054 0 00-1.722-.534 3.072 3.072 0 00-2.19.928 3.205 3.205 0 00-.91 2.236zm4.676 0c0 .319-.092.63-.265.895a1.584 1.584 0 01-.707.594 1.545 1.545 0 01-.91.092 1.567 1.567 0 01-.808-.44 1.642 1.642 0 01-.342-1.755c.119-.294.32-.546.58-.723a1.553 1.553 0 011.99.2c.295.302.462.71.462 1.137zm-10.669-.797a1.934 1.934 0 001.426-.57 2.049 2.049 0 000-2.881 1.964 1.964 0 00-.657-.432 1.93 1.93 0 00-.769-.138h-2.783a1.93 1.93 0 00-.77.138 1.964 1.964 0 00-.656.432 2.048 2.048 0 000 2.881 1.955 1.955 0 001.426.57h2.783zm-3.229-2.01a.46.46 0 01.13-.322.441.441 0 01.316-.133h2.782a.437.437 0 01.33.124.454.454 0 01.14.33.462.462 0 01-.14.331.444.444 0 01-.33.124h-2.782a.436.436 0 01-.315-.132.455.455 0 01-.13-.322z" fill="#000"/></svg>