<svg width="89" height="89" fill="none" xmlns="http://www.w3.org/2000/svg"><rect width="89" height="89" rx="22" fill="#FFEFED"/><path d="M42.339 22.48c.046.498.27.96.627 1.297.357.337.821.523 1.303.523h.064a16.8 16.8 0 016.977 1.256 17.347 17.347 0 015.917 4.043 18.101 18.101 0 012.62 3.487l-1.096.128c-.42.049-.821.212-1.162.474-.34.26-.609.61-.779 1.014a2.6 2.6 0 00.267 2.491l.724 1.022a.711.711 0 00.99.113.765.765 0 00.283-.471.786.786 0 00-.1-.546l-.723-1.021a1.02 1.02 0 01-.107-.976.98.98 0 01.303-.399.926.926 0 01.455-.188l2.192-.254a.713.713 0 00.33-.126.752.752 0 00.236-.272.785.785 0 00.003-.71c-1.641-3.292-4.146-6.034-7.225-7.909a18.333 18.333 0 00-10.169-2.682.457.457 0 01-.328-.119.493.493 0 01-.16-.321l-.115-1.262a.51.51 0 01.115-.369.465.465 0 01.332-.163 20.472 20.472 0 0111.94 3.325c3.57 2.324 6.39 5.707 8.094 9.713a.75.75 0 00.304.354.708.708 0 00.448.097l2.564-.297a.912.912 0 01.485.075c.152.07.285.18.383.318a1.005 1.005 0 01.104.979l-3.45 8.203a.977.977 0 01-.306.398.912.912 0 01-.941.11.954.954 0 01-.383-.319l-2.657-3.746a.712.712 0 00-1.007-.137.767.767 0 00-.287.483.787.787 0 00.114.557l2.657 3.746c.222.318.513.576.849.754.336.177.708.27 1.085.269.092 0 .184 0 .276-.016a2.35 2.35 0 001.166-.471 2.47 2.47 0 00.776-1.019l3.45-8.203a2.596 2.596 0 00-.266-2.49 2.43 2.43 0 00-.974-.81 2.33 2.33 0 00-1.234-.196l-2.036.236c-1.876-4.156-4.888-7.646-8.659-10.035a21.844 21.844 0 00-12.547-3.402c-.263.01-.521.077-.759.194a1.956 1.956 0 00-.622.49 2.03 2.03 0 00-.385.707c-.081.26-.11.535-.085.807l.129 1.266zm5.321 45.044a2.045 2.045 0 00-.652-1.32 1.896 1.896 0 00-1.343-.5c-3.103.1-6.176-.661-8.903-2.206a17.801 17.801 0 01-6.61-6.58l1.095-.127a2.36 2.36 0 001.163-.473c.34-.261.61-.611.78-1.014a2.597 2.597 0 00-.268-2.493l-5.115-7.209a2.43 2.43 0 00-.975-.811 2.329 2.329 0 00-2.398.28c-.341.26-.61.61-.78 1.015l-3.45 8.202a2.596 2.596 0 00.267 2.491c.251.355.587.634.975.81a2.33 2.33 0 001.233.197l2.033-.237c.122.27.25.539.382.804.09.18.244.315.429.377a.708.708 0 00.559-.05.755.755 0 00.362-.446.79.79 0 00-.047-.58 20.505 20.505 0 01-.564-1.228.753.753 0 00-.305-.354.71.71 0 00-.448-.098l-2.562.298a.913.913 0 01-.486-.075.953.953 0 01-.383-.319 1.017 1.017 0 01-.104-.98l3.45-8.202a.978.978 0 01.305-.399.913.913 0 01.941-.11.95.95 0 01.383.32l5.11 7.207a1.007 1.007 0 01.107.976.978.978 0 01-.304.398.925.925 0 01-.454.188l-2.192.255a.714.714 0 00-.33.127.752.752 0 00-.235.272.785.785 0 00-.003.709c1.642 3.292 4.147 6.034 7.225 7.908a18.332 18.332 0 0010.17 2.682.457.457 0 01.327.119.496.496 0 01.16.321l.115 1.262a.51.51 0 01-.114.368.468.468 0 01-.333.164 20.279 20.279 0 01-8.47-1.497 20.94 20.94 0 01-7.184-4.9 22.005 22.005 0 01-2.344-2.902.73.73 0 00-.474-.304.71.71 0 00-.542.13.766.766 0 00-.299.487c-.034.197.008.4.117.565a23.544 23.544 0 002.513 3.1 22.417 22.417 0 007.288 5.074 21.71 21.71 0 009.445 1.768c.263-.01.52-.077.758-.194a1.95 1.95 0 00.623-.49 2.085 2.085 0 00.471-1.513l-.116-1.263zM31.863 43.67c2.346 0 4.64-.724 6.59-2.079a12.243 12.243 0 004.37-5.535 12.788 12.788 0 00.675-7.126 12.491 12.491 0 00-3.247-6.314 11.73 11.73 0 00-6.075-3.375 11.443 11.443 0 00-6.854.702A11.975 11.975 0 0022 24.486a12.683 12.683 0 00-2 6.852c.004 3.27 1.255 6.404 3.479 8.716 2.224 2.312 5.239 3.612 8.384 3.615zm0-23.143c2.056 0 4.066.634 5.776 1.822a10.73 10.73 0 013.83 4.85c.787 1.976.993 4.15.592 6.246a10.949 10.949 0 01-2.846 5.535 10.28 10.28 0 01-5.323 2.958 10.03 10.03 0 01-6.007-.614 10.496 10.496 0 01-4.667-3.98 11.115 11.115 0 01-1.753-6.006c.003-2.866 1.1-5.614 3.049-7.64 1.949-2.027 4.592-3.168 7.349-3.17z" fill="#000"/><path d="M31.863 39.912a8.026 8.026 0 004.582-1.445 8.512 8.512 0 003.038-3.849 8.891 8.891 0 00.47-4.955 8.686 8.686 0 00-2.258-4.39 8.157 8.157 0 00-4.224-2.347 7.957 7.957 0 00-4.766.489 8.326 8.326 0 00-3.701 3.159 8.819 8.819 0 00-1.39 4.764c.003 2.274.873 4.453 2.42 6.06 1.546 1.608 3.642 2.512 5.829 2.514zm0-15.627a6.6 6.6 0 013.768 1.189 7.001 7.001 0 012.499 3.164 7.312 7.312 0 01.386 4.075 7.143 7.143 0 01-1.857 3.61 6.708 6.708 0 01-3.473 1.93 6.544 6.544 0 01-3.92-.4 6.848 6.848 0 01-3.043-2.598 7.252 7.252 0 01-1.143-3.918 7.206 7.206 0 011.989-4.984 6.664 6.664 0 014.794-2.068z" fill="#000"/><path d="M28.883 35.552c.854.48 1.443.63 2.185.677v.469a.79.79 0 00.203.56.732.732 0 00.53.234.71.71 0 00.53-.235.765.765 0 00.202-.56v-.523c1.563-.291 2.514-1.474 2.67-2.64.183-1.353-.65-2.522-2.129-2.969-.933-.283-1.967-.626-2.565-1.026a.612.612 0 01-.222-.284.638.638 0 01-.028-.365c.055-.341.325-.76.912-.913.22-.056.445-.089.672-.098h.012a2.491 2.491 0 011.502.406.713.713 0 001.026-.152.785.785 0 00-.146-1.067 3.775 3.775 0 00-1.708-.667v-.407a.776.776 0 00-.225-.518.719.719 0 00-.507-.212.72.72 0 00-.508.212.776.776 0 00-.225.518v.454c-.08.018-.163.035-.246.055-1.055.271-1.843 1.114-2.008 2.141a2.21 2.21 0 00.131 1.232c.16.388.428.717.769.947.61.406 1.464.76 2.95 1.21.77.233 1.172.705 1.089 1.295-.122.9-1.098 1.392-1.954 1.396-.989.007-1.38-.031-2.214-.5a.712.712 0 00-.81.08.783.783 0 00.116 1.26l-.004-.01zM69.2 48.658a.769.769 0 00-.251-.452.716.716 0 00-.471-.178H50.293a.716.716 0 00-.472.178.769.769 0 00-.25.452 57.738 57.738 0 000 19.168.77.77 0 00.25.452.717.717 0 00.472.18h18.185a.715.715 0 00.47-.18.77.77 0 00.251-.452 57.738 57.738 0 000-19.168zm-7.61.892v7.312l-1.814-1.189a.716.716 0 00-.782 0l-1.814 1.19V49.55h4.41zm6.267 17.388H50.913a56.137 56.137 0 010-17.384h4.802v8.692c0 .136.035.27.102.387a.748.748 0 00.277.28.71.71 0 00.745-.022l2.546-1.67 2.546 1.67a.72.72 0 00.909-.106.778.778 0 00.215-.539v-8.692h4.803a56.137 56.137 0 010 17.384z" fill="#000"/></svg>