<svg width="27" height="23" fill="none" xmlns="http://www.w3.org/2000/svg"><path fill-rule="evenodd" clip-rule="evenodd" d="M26.006 7.09a.634.634 0 00-.517-.296h-2.532c-.624-1.966-1.437-3.897-2.36-4.625-3.198-2.518-11.686-2.518-14.884 0-.924.728-1.736 2.659-2.364 4.625H.82a.631.631 0 00-.517.296.92.92 0 00-.136.665l.377 2.168c.061.369.334.633.65.633h.75c-.724.999-1.076 2.258-1.079 3.513-.006 1.555.488 2.958 1.392 3.953.01.008.02.02.029.027v3.039c0 .656.446 1.193.998 1.193h2.334c.55 0 .998-.537.998-1.193v-1.221h13.077v1.221c0 .656.446 1.193.999 1.193h2.333c.55 0 .999-.537.999-1.193v-2.981c.955-1.045 1.413-2.487 1.42-3.929.004-1.297-.364-2.603-1.132-3.622h.8c.316 0 .588-.264.653-.633l.375-2.168a.939.939 0 00-.134-.665zM6.811 4.163c2.548-2.005 10.139-2.005 12.684 0 .498.389 1.134 1.959 1.717 3.883H5.095c.582-1.924 1.218-3.494 1.716-3.883zM5.787 16.72c-1.082 0-1.963-1.053-1.963-2.351 0-1.295.881-2.347 1.963-2.347 1.086 0 1.967 1.052 1.967 2.347 0 1.298-.881 2.351-1.967 2.351zm14.758 0c-1.082 0-1.963-1.053-1.963-2.351 0-1.295.881-2.347 1.963-2.347 1.086 0 1.967 1.052 1.967 2.347 0 1.298-.881 2.351-1.967 2.351z" fill="#fff"/></svg>