<svg width="89" height="89" fill="none" xmlns="http://www.w3.org/2000/svg"><rect width="89" height="89" rx="22" fill="#EEE7FA"/><path d="M64.948 57.26h-2.539a.755.755 0 00-.511.23.745.745 0 00.511 1.265h2.539a.758.758 0 00.723-.454.744.744 0 00-.426-.993.758.758 0 00-.297-.048zm0-1.985h-2.539a.754.754 0 00-.511.23.745.745 0 00.511 1.264h2.539a.756.756 0 00.723-.453.744.744 0 00-.426-.993.756.756 0 00-.297-.048zm0-1.987h-2.539a.754.754 0 00-.72.747c0 .193.074.379.209.518a.758.758 0 00.511.23h2.539a.755.755 0 00.723-.454.744.744 0 00-.426-.993.756.756 0 00-.297-.048zm0-3.154h-2.539a.754.754 0 00-.511.23.745.745 0 00.511 1.264h2.539a.755.755 0 00.723-.454.744.744 0 00-.426-.992.756.756 0 00-.297-.048zm0-1.985h-2.539a.754.754 0 00-.511.23.745.745 0 00.511 1.264h2.539a.758.758 0 00.723-.454.744.744 0 00-.426-.993.756.756 0 00-.297-.047zm0-1.988h-2.539a.754.754 0 00-.511.23.745.745 0 00.511 1.264h2.539a.756.756 0 00.723-.453.744.744 0 00-.426-.993.756.756 0 00-.297-.048zm0-3.154h-2.54c-.199 0-.39.08-.531.22a.746.746 0 00.532 1.276h2.539a.75.75 0 00.531-.22.746.746 0 00-.531-1.276zm0-1.985h-2.539a.754.754 0 00-.72.747.75.75 0 00.72.747h2.539a.756.756 0 00.723-.454.744.744 0 00-.426-.993.756.756 0 00-.297-.047zm0-1.987h-2.539a.746.746 0 000 1.494h2.538a.756.756 0 00.724-.454.744.744 0 00-.426-.993.758.758 0 00-.297-.047z" fill="#000"/><path d="M69.586 31.348a4.173 4.173 0 00-1.145-2.62 4.22 4.22 0 00-2.57-1.279 71.838 71.838 0 00-8.455-.488h-.17c-.013-.227-.025-.453-.04-.68a7.107 7.107 0 00-1.982-4.513 7.187 7.187 0 00-4.452-2.158 116.188 116.188 0 00-23.773 0 7.186 7.186 0 00-4.451 2.158 7.106 7.106 0 00-1.982 4.513 293.425 293.425 0 000 36.438c.1 1.69.803 3.29 1.982 4.513a7.186 7.186 0 004.451 2.158A116 116 0 0038.89 70c3.972 0 7.94-.203 11.891-.61a7.154 7.154 0 004.085-1.814.75.75 0 00.245-.517.743.743 0 00-.43-.712.754.754 0 00-.825.123 5.65 5.65 0 01-3.242 1.429c-7.8.803-15.662.803-23.462 0a5.682 5.682 0 01-3.521-1.707 5.619 5.619 0 01-1.567-3.57 291.49 291.49 0 010-36.258 5.622 5.622 0 011.567-3.57 5.684 5.684 0 013.52-1.707c7.8-.803 15.663-.803 23.463 0 1.341.135 2.59.74 3.522 1.707a5.622 5.622 0 011.567 3.57 291.993 291.993 0 010 36.258 5.588 5.588 0 01-.4 1.763.743.743 0 00.425.946.756.756 0 00.968-.386c.29-.711.46-1.464.508-2.23l.04-.68h.267c2.792 0 5.58-.164 8.353-.488a4.22 4.22 0 002.575-1.279 4.174 4.174 0 001.147-2.624c.552-8.757.552-17.54 0-26.296zM68.09 57.556a2.687 2.687 0 01-.738 1.684 2.717 2.717 0 01-1.654.823 70.03 70.03 0 01-8.274.48h-.088c.585-10.69.585-21.404 0-32.093h.087a70.853 70.853 0 018.275.48 2.717 2.717 0 011.654.822c.437.458.698 1.054.738 1.685.546 8.697.546 17.42 0 26.119z" fill="#000"/><path d="M53.453 27.8A4.638 4.638 0 0052 24.88a4.69 4.69 0 00-3.025-1.254 255.505 255.505 0 00-20.175 0 4.69 4.69 0 00-3.024 1.254 4.638 4.638 0 00-1.454 2.919 29.269 29.269 0 000 6.306c.089.809.388 1.58.867 2.24a4.72 4.72 0 001.868 1.523.757.757 0 001.022-.36.746.746 0 00-.402-1.002 3.214 3.214 0 01-1.271-1.037 3.19 3.19 0 01-.59-1.525 27.832 27.832 0 010-5.984 3.152 3.152 0 01.987-1.987 3.187 3.187 0 012.057-.853c6.654-.265 13.4-.265 20.052 0a3.18 3.18 0 012.057.853c.56.522.91 1.228.987 1.987a27.73 27.73 0 010 5.986 3.151 3.151 0 01-.987 1.986c-.56.522-1.29.825-2.057.853-6.146.248-12.39.266-18.554.056a.757.757 0 00-.71.437.744.744 0 00.658 1.056 249.379 249.379 0 0018.668-.056 4.691 4.691 0 003.023-1.254 4.638 4.638 0 001.454-2.92 29.263 29.263 0 000-6.304h.002zm-4.367 12.985a143.557 143.557 0 00-20.392 0 4.486 4.486 0 00-2.822 1.254 4.436 4.436 0 00-1.33 2.773 88.268 88.268 0 000 16.488 4.436 4.436 0 001.33 2.772 4.485 4.485 0 002.822 1.253 143.167 143.167 0 0020.392 0 4.484 4.484 0 002.822-1.253 4.435 4.435 0 001.33-2.772 88.49 88.49 0 000-16.488 4.436 4.436 0 00-1.33-2.773 4.486 4.486 0 00-2.822-1.254zm2.655 4.165a81.92 81.92 0 01.245 3.32c-2.434-.059-4.89-.102-7.324-.132-.03-2.043-.083-4.09-.155-6.116 1.494.058 2.984.14 4.47.247.706.046 1.372.34 1.878.83.506.49.82 1.144.886 1.844v.007zm-26.019 4.82c2.45-.06 4.924-.103 7.375-.133a323.96 323.96 0 000 6.83 486.04 486.04 0 01-7.375-.132 86.922 86.922 0 010-6.57v.005zm8.88 6.715c-.026-2.279-.026-4.58 0-6.86 2.85-.022 5.725-.022 8.576 0 .025 2.28.025 4.58 0 6.86-2.85.024-5.726.024-8.576 0zM44.68 49.64c2.453.027 4.925.07 7.375.133a86.817 86.817 0 010 6.57c-2.45.061-4.922.104-7.375.133.025-2.27.025-4.56 0-6.83v-.006zm-1.682-7.667c.072 2.036.125 4.098.157 6.153a537.701 537.701 0 00-8.538 0c.032-2.055.084-4.117.156-6.153a144.6 144.6 0 014.112-.061c1.371-.001 2.742.02 4.113.06zM26.03 44.945c.065-.7.38-1.353.886-1.843a2.98 2.98 0 011.877-.83 133.87 133.87 0 014.47-.247 307.9 307.9 0 00-.153 6.116 448.3 448.3 0 00-7.326.132c.06-1.109.142-2.216.246-3.32v-.008zm0 16.21a82.786 82.786 0 01-.246-3.32c2.434.06 4.89.102 7.326.132.03 2.043.082 4.091.153 6.116-1.494-.06-2.984-.142-4.47-.247a2.981 2.981 0 01-1.877-.831 2.948 2.948 0 01-.886-1.844v-.006zm8.739 2.974a310.495 310.495 0 01-.156-6.155 466.546 466.546 0 008.55 0 311.486 311.486 0 01-.157 6.155c-2.74.078-5.48.078-8.225 0h-.012zm16.968-2.974c-.065.7-.38 1.353-.886 1.843a2.98 2.98 0 01-1.877.832c-1.486.106-2.975.188-4.47.247.072-2.026.124-4.075.155-6.116 2.435-.027 4.89-.07 7.324-.133a82.301 82.301 0 01-.246 3.32v.007z" fill="#000"/><path d="M47.592 33.7c-.904 0-1.202-.035-1.912-.412a.752.752 0 00-1.096.873.745.745 0 00.384.443c.735.399 1.25.531 1.87.571v.3a.744.744 0 00.457.718.755.755 0 00.999-.423.744.744 0 00.048-.296v-.357c1.377-.28 2.216-1.298 2.358-2.3.134-.912-.307-2.145-1.956-2.624-.816-.235-1.72-.521-2.238-.854a.416.416 0 01-.175-.443c.044-.255.258-.57.73-.687a2.395 2.395 0 011.825.226.753.753 0 001.18-.489.744.744 0 00-.379-.77 3.65 3.65 0 00-1.344-.493v-.25a.754.754 0 00-1.503 0v.3c-.045.01-.092.02-.134.031-.972.24-1.7.982-1.853 1.892a1.894 1.894 0 00.842 1.944c.548.352 1.31.65 2.633 1.033.627.182.95.54.889.982-.075.524-.668 1.085-1.625 1.09V33.7z" fill="#000"/></svg>