<svg width="20" height="22" fill="none" xmlns="http://www.w3.org/2000/svg"><path d="M13.77 11.375c.323 0 .585-.297.585-.662 0-.364-.262-.66-.585-.66-.324 0-.586.296-.586.66 0 .365.262.662.586.662zm-7.54 0c.324 0 .586-.297.586-.662 0-.364-.262-.66-.585-.66-.324 0-.586.296-.586.66 0 .365.262.662.586.662z" fill="#fff"/><path d="M19.996 21.265L18.55 6.672c-.033-.335-.284-.588-.582-.588h-3.613v2.76c.682.272 1.172 1.007 1.172 1.87 0 1.093-.788 1.983-1.757 1.983-.97 0-1.758-.89-1.758-1.984 0-.862.49-1.597 1.172-1.87V6.084H6.816v2.76c.682.272 1.172 1.007 1.172 1.87 0 1.093-.788 1.983-1.758 1.983-.969 0-1.757-.89-1.757-1.984 0-.862.49-1.597 1.172-1.87V6.084H2.03c-.298 0-.55.253-.582.588L.004 21.265a.719.719 0 00.145.515c.111.14.27.22.437.22h18.828a.56.56 0 00.437-.22.719.719 0 00.145-.515z" fill="#fff"/><path d="M6.816 4.916c0-1.981 1.429-3.593 3.184-3.593 1.755 0 3.184 1.612 3.184 3.593v1.168h1.171V4.916C14.355 2.206 12.402 0 10 0S5.645 2.205 5.645 4.916v1.168h1.171V4.916z" fill="#fff"/></svg>