<svg version="1.1" width="300px" height="89px" xmlns="http://www.w3.org/2000/svg" xmlns:xlink="http://www.w3.org/1999/xlink" x="0px" y="0px"
	 viewBox="0 0 300 89" style="enable-background:new 0 0 300 89;" xml:space="preserve">
<style type="text/css">
	.st0{fill:#A6A6A6;}
	.st1{fill:#FFFFFF;}
	.st2{fill:#FFFFFF;stroke:#FFFFFF;stroke-width:0.2;stroke-miterlimit:10;}
	.st3{fill:#FFFFFF;stroke:#000000;stroke-miterlimit:10;}
</style>
<path d="M288.9,88.9H11.1C4.9,88.9,0,84.1,0,77.8V11.2C0,4.9,4.9,0.1,11.1,0.1h277.8c6.2,0,11.1,4.9,11.1,11.1v66.7
	C300,84.1,295.1,88.9,288.9,88.9z"/>
<path class="st0" d="M288.9,1.8c5.1,0,9.3,4.2,9.3,9.3v66.7c0,5.1-4.2,9.3-9.3,9.3H11.1c-5.1,0-9.3-4.2-9.3-9.3V11.2
	c0-5.1,4.2-9.3,9.3-9.3H288.9 M288.9,0.1H11.1C4.9,0.1,0,5.2,0,11.2v66.7c0,6.2,4.9,11.1,11.1,11.1h277.8c6.2,0,11.1-4.9,11.1-11.1
	V11.2C300,5.2,295.1,0.1,288.9,0.1z"/>
<path class="st1" d="M151.3,48.5c-5.3,0-9.6,4-9.6,9.6c0,5.3,4.2,9.6,9.6,9.6c5.3,0,9.6-4,9.6-9.6C160.9,52.3,156.7,48.5,151.3,48.5
	z M151.3,63.6c-2.9,0-5.3-2.4-5.3-5.8c0-3.3,2.4-5.8,5.3-5.8c2.9,0,5.3,2.2,5.3,5.8C156.7,61.2,154.2,63.6,151.3,63.6z M130.7,48.5
	c-5.3,0-9.6,4-9.6,9.6c0,5.3,4.2,9.6,9.6,9.6s9.6-4,9.6-9.6C140.2,52.3,136,48.5,130.7,48.5z M130.7,63.6c-2.9,0-5.3-2.4-5.3-5.8
	c0-3.3,2.4-5.8,5.3-5.8c2.9,0,5.3,2.2,5.3,5.8C136,61.2,133.6,63.6,130.7,63.6z M106,51.4v4h9.6c-0.2,2.2-1.1,4-2.2,5.1
	c-1.3,1.3-3.6,2.9-7.3,2.9c-6,0-10.4-4.7-10.4-10.7s4.7-10.7,10.4-10.7c3.1,0,5.6,1.3,7.3,2.9l2.9-2.9c-2.4-2.2-5.6-4-10-4
	c-8,0-14.9,6.7-14.9,14.7s6.9,14.7,14.9,14.7c4.4,0,7.6-1.3,10.2-4.2c2.7-2.7,3.6-6.4,3.6-9.3c0-0.9,0-1.8-0.2-2.4
	C119.8,51.4,106,51.4,106,51.4z M206.9,54.5c-0.9-2.2-3.1-6-8-6s-8.9,3.8-8.9,9.6c0,5.3,4,9.6,9.3,9.6c4.2,0,6.9-2.7,7.8-4.2
	l-3.1-2.2c-1.1,1.6-2.4,2.7-4.7,2.7c-2.2,0-3.6-0.9-4.7-2.9l12.7-5.3C207.3,55.6,206.9,54.5,206.9,54.5z M194,57.6
	c0-3.6,2.9-5.6,4.9-5.6c1.6,0,3.1,0.9,3.6,2L194,57.6L194,57.6z M183.6,66.7h4.2V38.9h-4.2V66.7z M176.9,50.5
	c-1.1-1.1-2.9-2.2-5.1-2.2c-4.7,0-9.1,4.2-9.1,9.6s4.2,9.3,9.1,9.3c2.2,0,4-1.1,4.9-2.2h0.2v1.3c0,3.6-2,5.6-5.1,5.6
	c-2.4,0-4.2-1.8-4.7-3.3l-3.6,1.6c1.1,2.4,3.8,5.6,8.4,5.6c4.9,0,8.9-2.9,8.9-9.8V48.9h-4L176.9,50.5L176.9,50.5z M172,63.6
	c-2.9,0-5.3-2.4-5.3-5.8c0-3.3,2.4-5.8,5.3-5.8c2.9,0,5.1,2.4,5.1,5.8C177.1,61.2,174.9,63.6,172,63.6z M226.2,38.9h-10v27.8h4.2
	V56.3h5.8c4.7,0,9.1-3.3,9.1-8.7S230.9,38.9,226.2,38.9z M226.4,52.3h-6v-9.6h6c3.1,0,4.9,2.7,4.9,4.7
	C231.1,49.8,229.3,52.3,226.4,52.3z M252,48.3c-3.1,0-6.2,1.3-7.3,4.2l3.8,1.6c0.9-1.6,2.2-2,3.8-2c2.2,0,4.2,1.3,4.4,3.6v0.2
	c-0.7-0.4-2.4-1.1-4.2-1.1c-4,0-8,2.2-8,6.2c0,3.8,3.3,6.2,6.9,6.2c2.9,0,4.2-1.3,5.3-2.7h0.2v2.2h4V56.1
	C260.4,51.2,256.7,48.3,252,48.3L252,48.3z M251.6,63.6c-1.3,0-3.3-0.7-3.3-2.4c0-2.2,2.4-2.9,4.4-2.9c1.8,0,2.7,0.4,3.8,0.9
	C256,61.8,253.8,63.6,251.6,63.6z M274.9,48.9l-4.7,12H270l-4.9-12h-4.4l7.3,16.9l-4.2,9.3h4.2l11.3-26.2H274.9L274.9,48.9z
	 M237.6,66.7h4.2V38.9h-4.2V66.7z"/>
<g>
	<path class="st2" d="M102.7,27.2c-1.3,1.3-2.9,2-4.9,2c-2,0-3.6-0.7-4.9-2c-1.3-1.3-2-2.9-2-4.9s0.7-3.6,2-4.9c1.3-1.3,2.9-2,4.9-2
		c2,0,3.6,0.7,4.9,2c1.3,1.3,2,2.9,2,4.9S104,25.8,102.7,27.2z M94.2,26.1c0.9,0.9,2.2,1.6,3.6,1.6c1.3,0,2.7-0.4,3.6-1.6
		c0.9-0.9,1.6-2.2,1.6-3.8s-0.4-2.9-1.6-3.8c-0.9-0.9-2.2-1.6-3.6-1.6c-1.3,0-2.7,0.4-3.6,1.6c-0.9,0.9-1.6,2.2-1.6,3.8
		S93.1,25.2,94.2,26.1z M107.1,28.9V15.6h2l6.4,10.4V15.6h1.8v13.3h-1.8l-6.7-10.9v10.9H107.1z M124.9,28.9h-1.8V17.2h-3.8v-1.6h9.1
		v1.6h-3.8v11.8H124.9z M130.9,28.9V15.6h4c2,0,3.8,0.7,4.9,1.8c1.3,1.3,1.8,2.9,1.8,4.9s-0.7,3.6-1.8,4.9c-1.3,1.3-2.9,1.8-4.9,1.8
		H130.9z M132.4,27.4h2.4c1.6,0,2.7-0.4,3.6-1.3c0.9-0.9,1.3-2.2,1.3-3.8s-0.4-2.9-1.3-3.8c-0.9-0.9-2.2-1.3-3.6-1.3h-2.4V27.4z
		 M151.8,17.2h-6v4.2h5.6v1.6h-5.6v4.2h6v1.8H144V15.6h7.8V17.2z M164.4,15.6l-4.9,5.8l5.3,7.6h-2l-4.4-6.2l-2,2.4v3.8h-1.8V15.6
		h1.8v6.9l5.8-6.9H164.4z M170.9,28.9V15.6h1.8v5.8h6.7v-5.8h1.8v13.3h-1.8v-6h-6.7v6H170.9z M192,17.2h-6v4.2h5.6v1.6H186v4.2h6
		v1.8h-7.8V15.6h7.8V17.2z M199.1,28.9h-1.8V17.2h-3.8v-1.6h9.1v1.6h-3.8v11.8H199.1z M220.2,27.2c-1.3,1.3-2.9,2-4.9,2
		c-2,0-3.6-0.7-4.9-2c-1.3-1.3-2-2.9-2-4.9s0.7-3.6,2-4.9c1.3-1.3,2.9-2,4.9-2c2,0,3.6,0.7,4.9,2c1.3,1.3,2,2.9,2,4.9
		S221.6,25.8,220.2,27.2z M211.8,26.1c0.9,0.9,2.2,1.6,3.6,1.6s2.7-0.4,3.6-1.6c0.9-0.9,1.6-2.2,1.6-3.8s-0.4-2.9-1.6-3.8
		c-0.9-0.9-2.2-1.6-3.6-1.6s-2.7,0.4-3.6,1.6c-0.9,0.9-1.6,2.2-1.6,3.8S210.7,25.2,211.8,26.1z M226.2,28.9h-1.8V15.6h4.4
		c1.1,0,2,0.4,2.9,1.1c0.9,0.7,1.3,1.8,1.3,2.9s-0.4,2-1.3,2.9c-0.9,0.7-1.8,1.1-2.9,1.1H226v5.3H226.2z M226.2,21.8h2.9
		c0.7,0,1.3-0.2,1.8-0.7c0.4-0.4,0.7-1.1,0.7-1.6c0-0.4-0.2-1.1-0.7-1.6c-0.4-0.4-1.1-0.7-1.8-0.7h-2.9V21.8z"/>
</g>
<circle class="st3" cx="43.8" cy="43.7" r="29.8"/>
</svg>
