<?xml version="1.0" encoding="UTF-8"?>
<svg width="126px" height="42px" viewBox="0 0 126 42" version="1.1" xmlns="http://www.w3.org/2000/svg" xmlns:xlink="http://www.w3.org/1999/xlink">
    <title>home/icn_ios_download</title>
    <g id="Page-1" stroke="none" stroke-width="1" fill="none" fill-rule="evenodd">
        <g id="Artboard" transform="translate(-566.000000, -56.000000)" fill-rule="nonzero">
            <g id="icn/ios_download" transform="translate(566.000000, 56.000000)">
                <g id="Group" transform="translate(0.000000, 0.000000)">
                    <g id="Path">
                        <path d="M115.765057,1.0564466e-16 L10.02211,1.0564466e-16 C9.63666359,1.0564466e-16 9.25584217,1.0564466e-16 8.87141539,0.0022365 C8.54961446,0.0043365 8.23037825,0.010437 7.90548702,0.0155715 C7.19967311,0.0238683938 6.49551904,0.0858965729 5.79914405,0.201117 C5.10374719,0.318845759 4.43013414,0.540798027 3.80108766,0.859467 C3.17281052,1.1808318 2.59873573,1.59841241 2.09968936,2.09706 C1.59802309,2.59430534 1.17984551,3.1690537 0.861236643,3.7992045 C0.541748427,4.42810108 0.320214267,5.10202171 0.204285521,5.7976905 C0.0872546095,6.49248065 0.0242792113,7.19528307 0.0159244952,7.8997905 C0.00617008494,8.2217205 0.00513998558,8.5447215 0,8.8666935 L0,33.1366665 C0.00513998558,33.4626915 0.00617008494,33.7785315 0.0159244952,34.1046615 C0.0242817733,34.809134 0.0872571725,35.5119013 0.204285521,36.2066565 C0.319894153,36.902732 0.541441412,37.5770395 0.861236643,38.2061715 C1.17970085,38.8342845 1.59793723,39.406706 2.09968936,39.9011865 C2.59684351,40.4020513 3.17128936,40.819916 3.80108766,41.1388215 C4.43012936,41.4583434 5.10366979,41.6816167 5.79914405,41.8011615 C6.49563743,41.915459 7.19971908,41.9775124 7.90548702,41.9868015 C8.23037825,41.9939415 8.54961446,41.9980365 8.87141539,41.9980365 C9.25583166,42.0001365 9.63668462,42.0001365 10.02211,42.0001365 L115.765057,42.0001365 C116.14283,42.0001365 116.5267,42.0001365 116.904473,41.9980365 C117.22475,41.9980365 117.553226,41.9939415 117.873502,41.9868015 C118.577936,41.9780064 119.280692,41.915949 119.975746,41.8011615 C120.673464,41.6807752 121.349419,41.4575609 121.981497,41.1388215 C122.610727,40.8197313 123.184642,40.401878 123.681371,39.9011865 C124.181828,39.4047694 124.600958,38.8327666 124.923376,38.2061715 C125.240772,37.5765818 125.46021,36.9023282 125.574126,36.2066565 C125.691341,35.511806 125.756551,34.809195 125.769214,34.1046615 C125.773313,33.7785315 125.773313,33.4626915 125.773313,33.1366665 C125.781512,32.7552015 125.781512,32.3758365 125.781512,31.9881765 L125.781512,10.013073 C125.781512,9.6285525 125.781512,9.2471085 125.773313,8.8666935 C125.773313,8.5447215 125.773313,8.2217205 125.769214,7.8997485 C125.756554,7.19518007 125.691344,6.49253395 125.574126,5.7976485 C125.459893,5.10238218 125.240467,4.42851494 124.923376,3.7991625 C124.274544,2.53609238 123.245684,1.50796317 121.981497,0.8593725 C121.349417,0.541482249 120.67339,0.31958893 119.975746,0.2010225 C119.280812,0.0852944223 118.577983,0.0232446531 117.873502,0.0154245 C117.553226,0.0103005 117.22475,0.0041475 116.904473,0.0021 C116.5267,1.0564466e-16 116.14283,1.0564466e-16 115.765057,1.0564466e-16 L115.765057,1.0564466e-16 Z" fill="#A6A6A6"></path>
                        <path d="M8.87654487,41.0813865 C8.55628908,41.0813865 8.24376955,41.0772915 7.92602594,41.0701515 C7.26779431,41.0615843 6.61110114,41.0043428 5.96133215,40.8988965 C5.35545535,40.7946611 4.7685236,40.6007642 4.21989662,40.3236015 C3.67630027,40.0487353 3.18049669,39.688323 2.75147948,39.2561715 C2.31625233,38.8291105 1.95390585,38.3337927 1.67879917,37.7898465 C1.40066106,37.2423651 1.20817293,36.655531 1.10804004,36.0497865 C0.999905211,35.3989071 0.941399788,34.7407654 0.933028261,34.0810365 C0.926364149,33.8595915 0.917639838,33.1222815 0.917639838,33.1222815 L0.917639838,8.8666935 C0.917639838,8.8666935 0.926931755,8.140713 0.933080817,7.9274265 C0.94109649,7.26874265 0.999261703,6.61162225 1.10707301,5.961753 C1.20739073,5.35434908 1.40002788,4.76582281 1.67831566,4.216548 C1.95241125,3.67297754 2.31274606,3.17728981 2.74535144,2.7487005 C3.17747058,2.31603899 3.67486014,1.95377082 4.21938158,1.675107 C4.76674764,1.39883478 5.35257017,1.20630567 5.95722226,1.10397 C6.6091252,0.997464445 7.26809816,0.939882389 7.9286117,0.931707 L8.87705992,0.9188865 L116.899323,0.9188865 L117.859102,0.9322215 C118.513607,0.939990658 119.166594,0.997059006 119.812507,1.102941 C120.42328,1.20656032 121.015208,1.40043281 121.568826,1.6781835 C122.6597,2.23977185 123.547323,3.1282576 124.107285,4.21911 C124.381131,4.76459294 124.570797,5.34831859 124.669846,5.950476 C124.778941,6.60567745 124.839998,7.26796175 124.852531,7.9320465 C124.855579,8.2294065 124.855579,8.5488165 124.855579,8.8666935 C124.863883,9.2604435 124.863883,9.63522 124.863883,10.013073 L124.863883,31.9881765 C124.863883,32.3696415 124.863883,32.7418665 124.855579,33.1171365 C124.855579,33.4585965 124.855579,33.7713915 124.851479,34.0933215 C124.839218,34.745556 124.779179,35.396019 124.671843,36.0394965 C124.573762,36.6496107 124.382322,37.2410253 124.104237,37.7929965 C123.827186,38.3310387 123.46692,38.822066 123.036718,39.2479815 C122.607315,39.6824554 122.110636,40.0449763 121.565778,40.3216065 C121.013693,40.6008999 120.422637,40.7955138 119.812507,40.8988965 C119.162787,41.0049055 118.506031,41.0621507 117.84775,41.0701515 C117.539876,41.0772915 117.217497,41.0813865 116.904473,41.0813865 L115.765057,41.0834865 L8.87654487,41.0813865 Z" fill="#000000"></path>
                    </g>
                    <g id="_Group_" transform="translate(10.481332, 9.156420)" fill="#FFFFFF">
                        <g id="_Group_3" transform="translate(0.000000, 0.000000)">
                            <path d="M15.5537777,12.1594305 C15.5767521,10.3781361 16.511605,8.73276192 18.0308093,7.7997675 C17.0680581,6.42625491 15.5133222,5.58663877 13.8356141,5.5342035 C12.0705283,5.3491305 10.3593546,6.589275 9.45989913,6.589275 C8.54303712,6.589275 7.15818416,5.5525785 5.66692613,5.583228 C3.70481943,5.64655184 1.91994726,6.73391825 0.965342436,8.4474915 C-1.06752712,11.9633325 0.448810674,17.130435 2.39612942,19.9723755 C3.37041421,21.363993 4.50907343,22.9184655 5.99898602,22.8633405 C7.45695502,22.802934 8.00147815,21.9346365 9.76137137,21.9346365 C11.5049302,21.9346365 12.0158069,22.8633405 13.5359497,22.8282915 C15.1004184,22.8029235 16.0861079,21.4304895 17.0262102,20.0256945 C17.7262322,19.0341162 18.264898,17.9382062 18.6222545,16.778559 C16.7641409,15.9935068 15.5559465,14.1747526 15.5537777,12.1594305 L15.5537777,12.1594305 Z" id="_Path_"></path>
                            <path d="M12.6825019,3.665151 C13.5355152,2.6422325 13.9557625,1.32744408 13.8539982,0 C12.5507836,0.136731512 11.3469783,0.758918659 10.4824409,1.7425905 C9.62874999,2.71311498 9.19627214,3.98282081 9.28026242,5.27205 C10.6009516,5.2856336 11.8549181,4.69337738 12.6825019,3.665151 L12.6825019,3.665151 Z" id="_Path_2"></path>
                        </g>
                        <g id="Group" transform="translate(25.705922, 9.608309)">
                            <path d="M8.27758413,9.7320405 L3.30220423,9.7320405 L2.10737306,13.256313 L0,13.256313 L4.71259946,0.217413 L6.90208615,0.217413 L11.6146856,13.256313 L9.47137469,13.256313 L8.27758413,9.7320405 Z M3.81749567,8.105769 L7.76130464,8.105769 L5.81713926,2.3861355 L5.7627332,2.3861355 L3.81749567,8.105769 Z" id="Shape"></path>
                            <path d="M21.7922985,8.5036245 C21.7922985,11.4577785 20.2094563,13.355769 17.820824,13.355769 C16.5861609,13.4202859 15.4231757,12.7742902 14.8265669,11.692569 L14.7813687,11.692569 L14.7813687,16.401168 L12.827964,16.401168 L12.827964,3.749907 L14.7187849,3.749907 L14.7187849,5.33106 L14.7547123,5.33106 C15.377826,4.25612031 16.5420653,3.61040278 17.7848967,3.6504405 C20.2001749,3.650451 21.7922985,5.557671 21.7922985,8.5036245 Z M19.7844877,8.5036245 C19.7844877,6.5789745 18.7887916,5.31363 17.2695947,5.31363 C15.7770859,5.31363 14.7731805,6.6056235 14.7731805,8.5036245 C14.7731805,10.4190555 15.7770859,11.7018195 17.2695947,11.7018195 C18.7888021,11.7018195 19.7844877,10.445715 19.7844877,8.5036245 Z" id="Shape"></path>
                            <path d="M32.266559,8.5036245 C32.266559,11.4577785 30.6837168,13.355769 28.2950845,13.355769 C27.0604214,13.4202859 25.8974362,12.7742902 25.3008275,11.692569 L25.2556292,11.692569 L25.2556292,16.401168 L23.3022245,16.401168 L23.3022245,3.749907 L25.1930034,3.749907 L25.1930034,5.33106 L25.2289307,5.33106 C25.852049,4.25612096 27.0162927,3.61040723 28.2591257,3.650451 C30.6744774,3.650451 32.266559,5.557671 32.266559,8.5036245 Z M30.2587587,8.5036245 C30.2587587,6.5789745 29.2630521,5.31363 27.7438552,5.31363 C26.2513464,5.31363 25.247441,6.6056235 25.247441,8.5036245 C25.247441,10.4190555 26.2513464,11.7018195 27.7438552,11.7018195 C29.2630626,11.7018195 30.2587587,10.445715 30.2587587,8.5036245 L30.2587587,8.5036245 Z" id="Shape"></path>
                            <path d="M39.1891841,9.6233445 C39.3339236,10.916367 40.5913806,11.7653445 42.3097019,11.7653445 C43.9561896,11.7653445 45.1407513,10.916325 45.1407513,9.750447 C45.1407513,8.7383835 44.4263144,8.132397 42.7346705,7.717101 L41.0430266,7.310016 C38.6461851,6.731697 37.5334676,5.6119665 37.5334676,3.794973 C37.5334676,1.545264 39.4961117,0 42.2830139,0 C45.0411575,0 46.931968,1.545264 46.9956134,3.794973 L45.0237089,3.794973 C44.9056679,2.49375 43.8288778,1.708308 42.2552748,1.708308 C40.6816719,1.708308 39.6048923,2.50299 39.6048923,3.659628 C39.6048923,4.5814545 40.2926413,5.1238845 41.9750458,5.539128 L43.4131486,5.891865 C46.0912492,6.524532 47.2039668,7.599165 47.2039668,9.506364 C47.2039668,11.945766 45.2587713,13.4736 42.1649414,13.4736 C39.2702466,13.4736 37.3158223,11.981655 37.1895615,9.62325 L39.1891841,9.6233445 Z" id="Path"></path>
                            <path d="M51.419764,1.500198 L51.419764,3.749907 L53.2294594,3.749907 L53.2294594,5.295171 L51.419764,5.295171 L51.419764,10.5359415 C51.419764,11.350101 51.7821172,11.7294975 52.5776377,11.7294975 C52.792478,11.7257552 53.0069707,11.7106843 53.22022,11.6843475 L53.22022,13.220382 C52.862553,13.2871405 52.4990147,13.3173752 52.1352206,13.310619 C50.2085143,13.310619 49.4571199,12.587715 49.4571199,10.744062 L49.4571199,5.295171 L48.0734232,5.295171 L48.0734232,3.749907 L49.4570989,3.749907 L49.4570989,1.500198 L51.419764,1.500198 Z" id="Path"></path>
                            <path d="M54.2775434,8.5036245 C54.2775434,5.512563 56.041042,3.633021 58.7910079,3.633021 C61.5502026,3.633021 63.3054919,5.512521 63.3054919,8.5036245 C63.3054919,11.502897 61.5594419,13.374228 58.7910079,13.374228 C56.0235513,13.374228 54.2775434,11.5028865 54.2775434,8.5036245 Z M61.3151297,8.5036245 C61.3151297,6.4518195 60.3738396,5.2408335 58.7909974,5.2408335 C57.2081551,5.2408335 56.2678951,6.461049 56.2678951,8.5036245 C56.2678951,10.56363 57.2081551,11.765397 58.7909974,11.765397 C60.3738396,11.765397 61.3151297,10.56363 61.3151297,8.5036245 L61.3151297,8.5036245 Z" id="Shape"></path>
                            <path d="M64.9159997,3.749907 L66.7790815,3.749907 L66.7790815,5.367957 L66.8242798,5.367957 C67.0840919,4.32634483 68.0395159,3.60947113 69.1133392,3.65043 C69.3384517,3.64964484 69.5629431,3.67406628 69.7826095,3.723237 L69.7826095,5.548431 C69.4984187,5.46168349 69.2019589,5.42185486 68.9049228,5.430516 C68.3306405,5.40724321 67.7748627,5.63586947 67.3835201,6.05636427 C66.9921776,6.47685908 66.8043679,7.04721228 66.8694044,7.617666 L66.8694044,13.256292 L64.9159997,13.256292 L64.9159997,3.749907 Z" id="Path"></path>
                            <path d="M78.7889679,10.4641635 C78.5261875,12.189891 76.8437724,13.3742175 74.6912327,13.3742175 C71.9227986,13.3742175 70.2044667,11.521335 70.2044667,8.5487325 C70.2044667,5.5669005 71.932038,3.6330105 74.609119,3.6330105 C77.242053,3.6330105 78.89778,5.4397455 78.89778,8.3221215 L78.89778,8.9906775 L72.1763502,8.9906775 L72.1763502,9.1085925 C72.1135955,9.8163257 72.358238,10.5168834 72.8480485,11.0320664 C73.337859,11.5472494 74.0256282,11.827403 74.7364099,11.801265 C75.6843559,11.8899896 76.5780836,11.3462346 76.9341163,10.464153 L78.7889679,10.4641635 Z M72.185571,7.6269165 L76.9433452,7.6269165 C76.9787948,6.99096037 76.7470551,6.36907224 76.3039584,5.91107112 C75.8608617,5.45307001 75.2465832,5.20048243 74.609119,5.2141635 C73.9666122,5.21033334 73.3491927,5.46303936 72.8940935,5.91611291 C72.4389943,6.36918645 72.1839249,6.98508607 72.185571,7.6269165 L72.185571,7.6269165 Z" id="Shape"></path>
                        </g>
                    </g>
                </g>
                <g id="Group" transform="translate(37.494481, 8.858987)" fill="#FFFFFF">
                    <path d="M2.26545127,0.3087 C3.09473019,0.24925339 3.90699056,0.5644248 4.47866314,1.16746541 C5.05033573,1.77050602 5.3211631,2.59785203 5.21660184,3.421782 C5.21660184,5.4233445 4.13366259,6.573882 2.26545127,6.573882 L0,6.573882 L0,0.3087 L2.26545127,0.3087 Z M0.974127123,5.68785 L2.15663914,5.68785 C2.74928468,5.72323711 3.32634484,5.48998696 3.72759166,5.05286438 C4.12883847,4.6157418 4.31155403,4.02128414 4.22500508,3.43455 C4.30525719,2.85025076 4.11991033,2.26069853 3.71965838,1.82714068 C3.31940644,1.39358283 2.74613523,1.16139061 2.15663914,1.1940705 L0.974127123,1.1940705 L0.974127123,5.68785 Z" id="Shape"></path>
                    <path d="M6.31698972,4.207707 C6.23582958,3.3602363 6.6426311,2.54006753 7.36678282,2.09117724 C8.09093454,1.64228694 9.00723274,1.64228694 9.73138446,2.09117724 C10.4555362,2.54006753 10.8623377,3.3602363 10.7811776,4.207707 C10.8638819,5.05608838 10.4574517,5.8778479 9.73265786,6.32770457 C9.00786407,6.77756123 8.09030321,6.77756123 7.36550942,6.32770457 C6.64071562,5.8778479 6.23428541,5.05608838 6.31698972,4.207707 Z M9.82038917,4.207707 C9.82038917,3.1828335 9.35948278,2.5834935 8.55062353,2.5834935 C7.73867399,2.5834935 7.28191953,3.1828335 7.28191953,4.2077175 C7.28191953,5.240802 7.73870552,5.835522 8.55062353,5.835522 C9.3595038,5.835522 9.82038917,5.236686 9.82038917,4.207707 L9.82038917,4.207707 Z" id="Shape"></path>
                    <polygon id="Path" points="16.7152962 6.5737875 15.7462985 6.5737875 14.7680615 3.091557 14.6941571 3.091557 13.7200195 6.5737875 12.7602507 6.5737875 11.4555878 1.845711 12.4030375 1.845711 13.2509144 5.453511 13.3207193 5.453511 14.2938269 1.845711 15.1899503 1.845711 16.1630578 5.453511 16.2369622 5.453511 17.0807292 1.845711 18.0148296 1.845711"></polygon>
                    <path d="M19.1121377,1.845711 L20.0113408,1.845711 L20.0113408,2.5968075 L20.0811458,2.5968075 C20.3238865,2.04380184 20.8911012,1.70552285 21.4935907,1.754445 C21.9600962,1.71940836 22.4172386,1.8981794 22.7359439,2.24028217 C23.0546492,2.58238495 23.200332,3.05069495 23.1318586,3.512985 L23.1318586,6.573735 L22.1977582,6.573735 L22.1977582,3.747303 C22.1977582,2.9874915 21.867233,2.609628 21.1764042,2.609628 C20.8599806,2.59490607 20.5529,2.7189567 20.3356693,2.94925762 C20.1184386,3.17955855 20.0127231,3.49314106 20.0462381,3.8077935 L20.0462381,6.5737875 L19.1121377,6.5737875 L19.1121377,1.845711 Z" id="Path"></path>
                    <polygon id="Path" points="24.6202681 0 25.5543685 0 25.5543685 6.573777 24.6202681 6.573777"></polygon>
                    <path d="M26.8528718,4.207707 C26.771774,3.36018086 27.1786397,2.53999133 27.9028452,2.09109411 C28.6270506,1.64219689 29.5433959,1.64219689 30.2676014,2.09109411 C30.9918069,2.53999133 31.3986725,3.36018086 31.3175747,4.207707 C31.400174,5.05611875 30.9936693,5.87785505 30.2688396,6.3276919 C29.5440098,6.77752875 28.6264368,6.77752875 27.901607,6.3276919 C27.1767773,5.87785505 26.7702726,5.05611875 26.8528718,4.207707 L26.8528718,4.207707 Z M30.3562713,4.207707 C30.3562713,3.1828335 29.8953649,2.5834935 29.0865057,2.5834935 C28.2745561,2.5834935 27.8178017,3.1828335 27.8178017,4.2077175 C27.8178017,5.240802 28.2745877,5.835522 29.0865057,5.835522 C29.8953754,5.835522 30.3562713,5.236686 30.3562713,4.207707 L30.3562713,4.207707 Z" id="Shape"></path>
                    <path d="M32.3009517,5.236686 C32.3009517,4.3856085 32.9353248,3.8949645 34.0613705,3.825234 L35.3434553,3.7514085 L35.3434553,3.343305 C35.3434553,2.8439355 35.0129301,2.561958 34.3744577,2.561958 C33.8530066,2.561958 33.4916835,2.7531945 33.3880009,3.0874725 L32.4836682,3.0874725 C32.5791311,2.2753605 33.3438643,1.754466 34.4175642,1.754466 C35.6041861,1.754466 36.2734563,2.344566 36.2734563,3.343305 L36.2734563,6.573798 L35.3742532,6.573798 L35.3742532,5.9093475 L35.3003488,5.9093475 C34.9949439,6.39458015 34.4518346,6.67817139 33.8786645,6.6516975 C33.4768586,6.69344741 33.0761237,6.56345619 32.7755288,6.29386007 C32.4749339,6.02426394 32.3025348,5.64022548 32.3009517,5.236686 L32.3009517,5.236686 Z M35.3434553,4.8326775 L35.3434553,4.4373945 L34.1876313,4.51122 C33.5358096,4.554795 33.2401816,4.776282 33.2401816,5.1931005 C33.2401816,5.618634 33.609714,5.866266 34.1178683,5.866266 C34.4186847,5.89668436 34.71898,5.8038488 34.9500103,5.60901137 C35.1810406,5.41417393 35.3230232,5.13401811 35.3434553,4.8326775 Z" id="Shape"></path>
                    <path d="M37.5011245,4.207707 C37.5011245,2.7137145 38.2699676,1.767276 39.4658183,1.767276 C40.0696634,1.73948264 40.6352203,2.06269651 40.9172704,2.596776 L40.9870754,2.596776 L40.9870754,0 L41.9211758,0 L41.9211758,6.573777 L41.0260825,6.573777 L41.0260825,5.8267755 L40.9521781,5.8267755 C40.6488078,6.35642383 40.0762831,6.6741743 39.4658288,6.6516975 C38.2617583,6.65175 37.5011245,5.7052905 37.5011245,4.207707 Z M38.4660544,4.207707 C38.4660544,5.210541 38.9392694,5.8139865 39.7306905,5.8139865 C40.5179807,5.8139865 41.0045555,5.2018365 41.0045555,4.2118125 C41.0045555,3.2264085 40.5128723,2.605533 39.7306905,2.605533 C38.9443673,2.605533 38.4660228,3.2130735 38.4660228,4.207707 L38.4660544,4.207707 Z" id="Shape"></path>
                    <path d="M45.7858984,4.207707 C45.7047382,3.3602363 46.1115397,2.54006753 46.8356915,2.09117724 C47.5598432,1.64228694 48.4761414,1.64228694 49.2002931,2.09117724 C49.9244448,2.54006753 50.3312463,3.3602363 50.2500862,4.207707 C50.3327905,5.05608838 49.9263603,5.8778479 49.2015665,6.32770457 C48.4767727,6.77756123 47.5592118,6.77756123 46.8344181,6.32770457 C46.1096243,5.8778479 45.703194,5.05608838 45.7858984,4.207707 L45.7858984,4.207707 Z M49.2892873,4.207707 C49.2892873,3.1828335 48.8283914,2.5834935 48.0195322,2.5834935 C47.2075826,2.5834935 46.7508282,3.1828335 46.7508282,4.2077175 C46.7508282,5.240802 47.2076142,5.835522 48.0195322,5.835522 C48.8284019,5.835522 49.2892873,5.236686 49.2892873,4.207707 Z" id="Shape"></path>
                    <path d="M51.5034228,1.845711 L52.402626,1.845711 L52.402626,2.5968075 L52.472431,2.5968075 C52.7151716,2.04380184 53.2823864,1.70552285 53.8848759,1.754445 C54.3513814,1.71940836 54.8085238,1.8981794 55.1272291,2.24028217 C55.4459344,2.58238495 55.5916171,3.05069495 55.5231438,3.512985 L55.5231438,6.573735 L54.5890434,6.573735 L54.5890434,3.747303 C54.5890434,2.9874915 54.2585181,2.609628 53.5676894,2.609628 C53.2512658,2.59490607 52.9441851,2.7189567 52.7269544,2.94925762 C52.5097238,3.17955855 52.4040082,3.49314106 52.4375232,3.8077935 L52.4375232,6.5737875 L51.5034228,6.5737875 L51.5034228,1.845711 Z" id="Path"></path>
                    <path d="M60.8013414,0.6685665 L60.8013414,1.8672465 L61.8268053,1.8672465 L61.8268053,2.6532135 L60.8013414,2.6532135 L60.8013414,5.084415 C60.8013414,5.579679 61.0056164,5.796546 61.4706116,5.796546 C61.589657,5.79616542 61.7085829,5.78897514 61.8268053,5.7750105 L61.8268053,6.552252 C61.6590562,6.58223025 61.4890963,6.59817904 61.318693,6.5999325 C60.2798904,6.5999325 59.8662109,6.2348895 59.8662109,5.3233215 L59.8662109,2.6531715 L59.114827,2.6531715 L59.114827,1.8672045 L59.8662109,1.8672045 L59.8662109,0.6685665 L60.8013414,0.6685665 Z" id="Path"></path>
                    <path d="M63.10272,0 L64.0286111,0 L64.0286111,2.6055225 L64.1025155,2.6055225 C64.3569162,2.04767699 64.9340581,1.70896692 65.5457057,1.7585505 C66.0095622,1.73333715 66.4605163,1.9160439 66.7757382,2.25690555 C67.0909601,2.59776719 67.2376176,3.06128092 67.1757644,3.521196 L67.1757644,6.5737875 L66.2407285,6.5737875 L66.2407285,3.7513875 C66.2407285,2.9961855 65.8886027,2.6137125 65.2286138,2.6137125 C64.9036374,2.58708835 64.5834658,2.70510551 64.353694,2.93621318 C64.1239222,3.16732085 64.0079796,3.48795333 64.0368624,3.8123925 L64.0368624,6.5737875 L63.102762,6.5737875 L63.10272,0 Z" id="Path"></path>
                    <path d="M72.6223517,5.2971765 C72.3604195,6.18902496 71.4964414,6.76525819 70.5714344,6.665043 C69.9403029,6.68168571 69.3337504,6.42036223 68.9127098,5.95040792 C68.4916691,5.48045361 68.2987055,4.84937874 68.3850169,4.2246225 C68.300998,3.59813 68.4932386,2.96604392 68.9119347,2.4921193 C69.3306308,2.01819469 69.9345828,1.74906559 70.5673245,1.7544555 C71.8843065,1.7544555 72.6788074,2.6532555 72.6788074,4.1379555 L72.6788074,4.46355 L69.336566,4.46355 L69.336566,4.51584 C69.3069895,4.86668715 69.4269422,5.21372014 69.6669239,5.47159273 C69.9069055,5.72946533 70.2446489,5.87425012 70.5970922,5.87034 C71.0540904,5.92514442 71.4989469,5.6986997 71.7231485,5.297145 L72.6223517,5.2971765 Z M69.3365449,3.773448 L71.7272269,3.773448 C71.7510378,3.45256846 71.6380901,3.13656533 71.4162177,2.90331205 C71.1943453,2.67005877 70.8841825,2.54124804 70.5621635,2.548623 C70.2357817,2.54452686 69.9215762,2.6722723 69.6908217,2.90288133 C69.4600672,3.13349035 69.3323227,3.44741642 69.336566,3.773448 L69.3365449,3.773448 Z" id="Shape"></path>
                </g>
            </g>
        </g>
    </g>
</svg>